HIERARCHY
ROOT newVegas:Hips
{
	OFFSET 0.000000 96.330055 9.825774
	CHANNELS 6 Xposition Yposition Zposition Xrotation Yrotation Zrotation
	JOINT newVegas:Pelvis
	{
		OFFSET 0.000000 0.000000 0.000000
		CHANNELS 3 Xrotation Yrotation Zrotation
		JOINT newVegas:LeftUpLeg
		{
			OFFSET 18.735231 -5.666687 -4.541196
			CHANNELS 3 Xrotation Yrotation Zrotation
			JOINT newVegas:LeftLeg
			{
				OFFSET 2.165257 -31.864662 0.493051
				CHANNELS 3 Xrotation Yrotation Zrotation
				JOINT newVegas:LeftFoot
				{
					OFFSET 2.207560 -31.861769 -4.336291
					CHANNELS 3 Xrotation Yrotation Zrotation
					JOINT newVegas:LeftToeBase
					{
						OFFSET 0.942982 -26.721954 15.023476
						CHANNELS 3 Xrotation Yrotation Zrotation
						End Site
						{
							OFFSET 0.000000 30.670130 0.000000
						}
					}
				}
				JOINT newVegas:Left_PantLeg
				{
					OFFSET 1.281483 -8.977982 -1.108870
					CHANNELS 3 Xrotation Yrotation Zrotation
					End Site
					{
						OFFSET 0.000000 20.683853 0.000000
					}
				}
			}
		}
		JOINT newVegas:RightUpLeg
		{
			OFFSET -18.735231 -5.666687 -4.541196
			CHANNELS 3 Xrotation Yrotation Zrotation
			JOINT newVegas:RightLeg
			{
				OFFSET -2.167511 -31.864510 0.493069
				CHANNELS 3 Xrotation Yrotation Zrotation
				JOINT newVegas:RightFoot
				{
					OFFSET -2.205305 -31.861921 -4.336310
					CHANNELS 3 Xrotation Yrotation Zrotation
					JOINT newVegas:RightToeBase
					{
						OFFSET -0.942982 -26.721954 15.023476
						CHANNELS 3 Xrotation Yrotation Zrotation
						End Site
						{
							OFFSET 0.000000 30.670130 0.000000
						}
					}
				}
				JOINT newVegas:Right_PantLeg
				{
					OFFSET -1.279257 -8.978161 -1.108887
					CHANNELS 3 Xrotation Yrotation Zrotation
					End Site
					{
						OFFSET 0.000000 20.683781 0.000000
					}
				}
			}
		}
	}
	JOINT newVegas:Spine
	{
		OFFSET 0.000000 10.200043 -0.299546
		CHANNELS 3 Xrotation Yrotation Zrotation
		JOINT newVegas:Spine1
		{
			OFFSET 0.000000 11.900047 -1.516603
			CHANNELS 3 Xrotation Yrotation Zrotation
			JOINT newVegas:Spine2
			{
				OFFSET 0.000000 13.600052 -2.842519
				CHANNELS 3 Xrotation Yrotation Zrotation
				JOINT newVegas:Neck
				{
					OFFSET 0.000000 9.624100 -2.890091
					CHANNELS 3 Xrotation Yrotation Zrotation
					JOINT newVegas:Head
					{
						OFFSET 0.000000 14.068771 -1.351861
						CHANNELS 3 Xrotation Yrotation Zrotation
						JOINT newVegas:Hair_Back
						{
							OFFSET 0.000000 3.231888 -17.524775
							CHANNELS 3 Xrotation Yrotation Zrotation
							End Site
							{
								OFFSET 0.000000 19.849899 0.000000
							}
						}
						JOINT newVegas:Hair_Front
						{
							OFFSET 0.000000 31.260452 4.573765
							CHANNELS 3 Xrotation Yrotation Zrotation
							JOINT newVegas:Hair_Front1
							{
								OFFSET -0.000000 2.284073 11.993284
								CHANNELS 3 Xrotation Yrotation Zrotation
								JOINT newVegas:Hair_Front2
								{
									OFFSET -0.000000 2.284073 11.993282
									CHANNELS 3 Xrotation Yrotation Zrotation
									End Site
									{
										OFFSET 0.000000 12.208847 0.000000
									}
								}
							}
						}
						JOINT newVegas:Jowel
						{
							OFFSET 0.000000 -7.458237 6.864121
							CHANNELS 3 Xrotation Yrotation Zrotation
							End Site
							{
								OFFSET 0.000000 19.849899 0.000000
							}
						}
					}
				}
				JOINT newVegas:LeftShoulder
				{
					OFFSET 15.263037 10.923431 -0.547705
					CHANNELS 3 Xrotation Yrotation Zrotation
					JOINT newVegas:LeftArm
					{
						OFFSET 25.438639 -2.830658 -13.032501
						CHANNELS 3 Xrotation Yrotation Zrotation
						JOINT newVegas:LeftForeArm
						{
							OFFSET 29.593842 0.000000 -4.673203
							CHANNELS 3 Xrotation Yrotation Zrotation
							JOINT newVegas:LeftHand
							{
								OFFSET 27.832886 0.000000 0.954267
								CHANNELS 3 Xrotation Yrotation Zrotation
								JOINT newVegas:LeftHandThumb1
								{
									OFFSET 4.767456 -2.676666 6.397403
									CHANNELS 3 Xrotation Yrotation Zrotation
									JOINT newVegas:LeftHandThumb2
									{
										OFFSET 6.625809 -0.223526 2.471421
										CHANNELS 3 Xrotation Yrotation Zrotation
										JOINT newVegas:LeftHandThumb3
										{
											OFFSET 6.481201 0.059357 1.536795
											CHANNELS 3 Xrotation Yrotation Zrotation
											End Site
											{
												OFFSET 0.000000 6.661179 0.000000
											}
										}
									}
								}
								JOINT newVegas:LeftHandIndex1
								{
									OFFSET 18.761932 0.178406 4.531118
									CHANNELS 3 Xrotation Yrotation Zrotation
									JOINT newVegas:LeftHandIndex2
									{
										OFFSET 3.171219 -0.350479 0.097670
										CHANNELS 3 Xrotation Yrotation Zrotation
										JOINT newVegas:LeftHandIndex3
										{
											OFFSET 3.807625 -0.034592 0.457391
											CHANNELS 3 Xrotation Yrotation Zrotation
											End Site
											{
												OFFSET 0.000000 3.835159 0.000000
											}
										}
									}
								}
								JOINT newVegas:LeftHandMiddle1
								{
									OFFSET 18.461426 0.243439 -0.695649
									CHANNELS 3 Xrotation Yrotation Zrotation
									JOINT newVegas:LeftHandMiddle2
									{
										OFFSET 3.308960 -0.304459 -0.112251
										CHANNELS 3 Xrotation Yrotation Zrotation
										JOINT newVegas:LeftHandMiddle3
										{
											OFFSET 4.584320 0.057678 -0.330443
											CHANNELS 3 Xrotation Yrotation Zrotation
											End Site
											{
												OFFSET 0.000000 4.596573 0.000000
											}
										}
									}
								}
								JOINT newVegas:LeftHandRing1
								{
									OFFSET 17.563904 -0.015564 -4.860666
									CHANNELS 3 Xrotation Yrotation Zrotation
									JOINT newVegas:LeftHandRing2
									{
										OFFSET 2.582436 -0.710159 -0.544994
										CHANNELS 3 Xrotation Yrotation Zrotation
										JOINT newVegas:LeftHandRing3
										{
											OFFSET 3.050346 0.119141 -0.884829
											CHANNELS 3 Xrotation Yrotation Zrotation
											End Site
											{
												OFFSET 0.000000 3.178314 0.000000
											}
										}
									}
								}
								JOINT newVegas:LeftHandPinky1
								{
									OFFSET 15.713013 -1.058273 -8.049927
									CHANNELS 3 Xrotation Yrotation Zrotation
									JOINT newVegas:LeftHandPinky2
									{
										OFFSET 2.262558 -0.308899 -1.109793
										CHANNELS 3 Xrotation Yrotation Zrotation
										JOINT newVegas:LeftHandPinky3
										{
											OFFSET 2.240669 -0.150864 -1.296448
											CHANNELS 3 Xrotation Yrotation Zrotation
											End Site
											{
												OFFSET 0.000000 2.593094 0.000000
											}
										}
									}
								}
							}
							JOINT newVegas:Left_Sleeve
							{
								OFFSET 0.247482 -0.649780 0.586459
								CHANNELS 3 Xrotation Yrotation Zrotation
								End Site
								{
									OFFSET 0.000000 15.991226 0.000000
								}
							}
							JOINT newVegas:Left_CapeC
							{
								OFFSET 15.944374 -8.608810 -6.393338
								CHANNELS 3 Xrotation Yrotation Zrotation
								JOINT newVegas:Left_CapeC1
								{
									OFFSET 0.000000 -8.688515 0.000000
									CHANNELS 3 Xrotation Yrotation Zrotation
									End Site
									{
										OFFSET 0.000000 8.688515 0.000000
									}
								}
							}
						}
						JOINT newVegas:Left_CapeB
						{
							OFFSET 24.694458 -8.608810 -11.066542
							CHANNELS 3 Xrotation Yrotation Zrotation
							JOINT newVegas:Left_CapeB1
							{
								OFFSET 0.000008 -8.688515 0.000000
								CHANNELS 3 Xrotation Yrotation Zrotation
								End Site
								{
									OFFSET 0.000000 8.688515 0.000000
								}
							}
						}
						JOINT newVegas:Left_CapeA
						{
							OFFSET 3.431450 -8.608810 -11.066542
							CHANNELS 3 Xrotation Yrotation Zrotation
							JOINT newVegas:Left_CapeA1
							{
								OFFSET 0.000000 -8.688515 0.000000
								CHANNELS 3 Xrotation Yrotation Zrotation
								End Site
								{
									OFFSET 0.000000 8.688515 0.000000
								}
							}
						}
					}
				}
				JOINT newVegas:RightShoulder
				{
					OFFSET -15.263037 10.923431 -0.547705
					CHANNELS 3 Xrotation Yrotation Zrotation
					JOINT newVegas:RightArm
					{
						OFFSET -25.438639 -2.830658 -13.032501
						CHANNELS 3 Xrotation Yrotation Zrotation
						JOINT newVegas:RightForeArm
						{
							OFFSET -29.593842 0.000000 -4.673203
							CHANNELS 3 Xrotation Yrotation Zrotation
							JOINT newVegas:RightHand
							{
								OFFSET -27.832886 0.000000 0.954267
								CHANNELS 3 Xrotation Yrotation Zrotation
								JOINT newVegas:RightHandThumb1
								{
									OFFSET -4.767456 -2.676666 6.397403
									CHANNELS 3 Xrotation Yrotation Zrotation
									JOINT newVegas:RightHandThumb2
									{
										OFFSET -6.625809 -0.223526 2.471421
										CHANNELS 3 Xrotation Yrotation Zrotation
										JOINT newVegas:RightHandThumb3
										{
											OFFSET -6.481201 0.059357 1.536795
											CHANNELS 3 Xrotation Yrotation Zrotation
											End Site
											{
												OFFSET 0.000000 6.661179 0.000000
											}
										}
									}
								}
								JOINT newVegas:RightHandIndex1
								{
									OFFSET -18.761932 0.178406 4.531118
									CHANNELS 3 Xrotation Yrotation Zrotation
									JOINT newVegas:RightHandIndex2
									{
										OFFSET -3.171219 -0.350479 0.097670
										CHANNELS 3 Xrotation Yrotation Zrotation
										JOINT newVegas:RightHandIndex3
										{
											OFFSET -3.807625 -0.034592 0.457391
											CHANNELS 3 Xrotation Yrotation Zrotation
											End Site
											{
												OFFSET 0.000000 3.835159 0.000000
											}
										}
									}
								}
								JOINT newVegas:RightHandMiddle1
								{
									OFFSET -18.461426 0.243439 -0.695648
									CHANNELS 3 Xrotation Yrotation Zrotation
									JOINT newVegas:RightHandMiddle2
									{
										OFFSET -3.308960 -0.304459 -0.112251
										CHANNELS 3 Xrotation Yrotation Zrotation
										JOINT newVegas:RightHandMiddle3
										{
											OFFSET -4.584320 0.057678 -0.330443
											CHANNELS 3 Xrotation Yrotation Zrotation
											End Site
											{
												OFFSET 0.000000 4.596573 0.000000
											}
										}
									}
								}
								JOINT newVegas:RightHandRing1
								{
									OFFSET -17.563904 -0.015564 -4.860666
									CHANNELS 3 Xrotation Yrotation Zrotation
									JOINT newVegas:RightHandRing2
									{
										OFFSET -2.582436 -0.710159 -0.544992
										CHANNELS 3 Xrotation Yrotation Zrotation
										JOINT newVegas:RightHandRing3
										{
											OFFSET -3.050346 0.119141 -0.884830
											CHANNELS 3 Xrotation Yrotation Zrotation
											End Site
											{
												OFFSET 0.000000 3.178329 0.000000
											}
										}
									}
								}
								JOINT newVegas:RightHandPinky1
								{
									OFFSET -15.713013 -1.058273 -8.049929
									CHANNELS 3 Xrotation Yrotation Zrotation
									JOINT newVegas:RightHandPinky2
									{
										OFFSET -2.262558 -0.308899 -1.109791
										CHANNELS 3 Xrotation Yrotation Zrotation
										JOINT newVegas:RightHandPinky3
										{
											OFFSET -2.240669 -0.150864 -1.296448
											CHANNELS 3 Xrotation Yrotation Zrotation
											End Site
											{
												OFFSET 0.000000 2.593094 0.000000
											}
										}
									}
								}
							}
							JOINT newVegas:Right_CapeC
							{
								OFFSET -15.944374 -8.608810 -6.393338
								CHANNELS 3 Xrotation Yrotation Zrotation
								JOINT newVegas:Right_CapeC1
								{
									OFFSET 0.000000 -8.688515 0.000000
									CHANNELS 3 Xrotation Yrotation Zrotation
									End Site
									{
										OFFSET 0.000000 8.688515 0.000000
									}
								}
							}
							JOINT newVegas:Right_Sleeve
							{
								OFFSET -0.247482 -0.649963 0.586505
								CHANNELS 3 Xrotation Yrotation Zrotation
								End Site
								{
									OFFSET 0.000000 15.991287 0.000000
								}
							}
						}
						JOINT newVegas:Right_CapeA
						{
							OFFSET -3.431450 -8.608810 -11.066542
							CHANNELS 3 Xrotation Yrotation Zrotation
							JOINT newVegas:Right_CapeA1
							{
								OFFSET 0.000000 -8.688515 0.000000
								CHANNELS 3 Xrotation Yrotation Zrotation
								End Site
								{
									OFFSET 0.000000 8.688515 0.000000
								}
							}
						}
						JOINT newVegas:Right_CapeB
						{
							OFFSET -24.694321 -8.608810 -11.066542
							CHANNELS 3 Xrotation Yrotation Zrotation
							JOINT newVegas:Right_CapeB1
							{
								OFFSET -0.000015 -8.688515 0.000002
								CHANNELS 3 Xrotation Yrotation Zrotation
								End Site
								{
									OFFSET 0.000000 8.688515 0.000000
								}
							}
						}
					}
				}
				JOINT newVegas:Left_Collar
				{
					OFFSET 18.625118 8.655487 8.828113
					CHANNELS 3 Xrotation Yrotation Zrotation
					JOINT newVegas:Left_Collar1
					{
						OFFSET 14.783401 10.540359 -1.259481
						CHANNELS 3 Xrotation Yrotation Zrotation
						End Site
						{
							OFFSET 0.000000 18.199844 0.000000
						}
					}
				}
				JOINT newVegas:Collar_Back
				{
					OFFSET 0.000000 15.630692 -20.132616
					CHANNELS 3 Xrotation Yrotation Zrotation
					End Site
					{
						OFFSET 0.000000 22.523010 0.000000
					}
				}
				JOINT newVegas:Left_Peck
				{
					OFFSET 17.239555 -5.132629 25.482586
					CHANNELS 3 Xrotation Yrotation Zrotation
					End Site
					{
						OFFSET 0.000000 22.523026 0.000000
					}
				}
				JOINT newVegas:Right_Peck
				{
					OFFSET -17.239599 -5.132195 25.482594
					CHANNELS 3 Xrotation Yrotation Zrotation
					End Site
					{
						OFFSET 0.000000 22.523018 0.000000
					}
				}
				JOINT newVegas:Right_Collar
				{
					OFFSET -18.625099 8.655807 8.828094
					CHANNELS 3 Xrotation Yrotation Zrotation
					JOINT newVegas:Right_Collar1
					{
						OFFSET -14.783405 10.539993 -1.259501
						CHANNELS 3 Xrotation Yrotation Zrotation
						End Site
						{
							OFFSET 0.000000 18.199646 0.000000
						}
					}
				}
			}
		}
		JOINT newVegas:Belly
		{
			OFFSET 0.000000 -6.540390 9.014252
			CHANNELS 3 Xrotation Yrotation Zrotation
			End Site
			{
				OFFSET 0.000000 11.566666 0.000000
			}
		}
	}
	JOINT newVegas:ElvisFacialAnim_Joint
	{
		OFFSET 1.000000 -95.330055 -8.825774
		CHANNELS 3 Xrotation Yrotation Zrotation
		End Site
		{
			OFFSET 0.000000 35.315800 0.000000
		}
	}
}
MOTION
Frames: 4
Frame Time: 0.016667
1.713156 93.556801 4.732809 4.450254 16.261451 -2.203873 -0.000001 -0.000002 -0.000000 -12.270095 10.741243 -11.971065 25.640626 12.023132 -0.483551 -15.930793 -4.634031 19.559493 0.000000 -0.000001 -0.000000 0.000001 -0.000001 0.000001 -12.885715 -8.197182 9.212737 26.603336 -2.833101 -7.575122 -13.741067 0.890884 -3.248720 0.000000 -0.000000 0.000000 -0.000001 0.000001 0.000000 -9.071918 -9.802869 1.123662 4.636103 -1.592019 -0.303832 4.616004 -1.618330 -0.429758 1.274482 -0.860855 0.834090 1.274486 -0.860855 0.834090 -0.000000 0.000000 -0.000000 1.274553 -0.860857 0.834090 1.274412 -0.860853 0.834088 0.000000 -0.000000 -0.000000 -0.000000 0.000000 -0.000000 1.305226 -1.808907 2.207024 -29.118042 -43.727776 -61.649533 0.000453 -95.831051 0.000462 39.407531 -32.043539 35.303288 5.178299 -4.983791 -14.533801 -1.306527 10.759512 -4.149400 0.000002 0.000000 0.000002 0.139742 4.073365 1.803869 1.632794 5.045582 -11.067417 0.000001 0.000001 0.000000 0.040080 0.379792 0.774101 -0.865221 -1.918859 -11.236513 -0.000000 -0.000001 -0.000002 0.987485 -9.291600 10.749101 -6.472008 -2.649043 -21.852975 -0.000001 -0.000000 -0.000002 0.285367 -19.601687 2.919888 -5.294323 -7.299625 -8.193154 -0.000001 -0.000002 0.000002 -0.000003 0.000002 -0.000000 -0.000003 0.000002 -0.000000 -0.000003 0.000002 -0.000000 -0.000001 -0.000000 -0.000001 -0.000001 -0.000000 -0.000002 -0.000001 -0.000000 -0.000001 -0.000001 -0.000000 -0.000001 -0.063059 -9.130679 7.907587 -1.525870 -5.776998 42.938787 0.000060 103.526632 -0.000062 33.581936 -8.599355 30.268291 5.046966 9.803535 13.804757 -1.360452 -13.063952 4.926597 0.000000 -0.000000 0.000000 0.311834 -4.224218 3.190953 2.243533 -5.029813 16.071369 0.000001 0.000001 -0.000005 -0.109289 -0.553815 4.223111 -1.173029 1.662010 16.201451 0.000001 0.000000 0.000001 -0.011945 9.163545 -5.701391 -7.616443 1.783529 26.674295 -0.000002 -0.000001 0.000000 -2.450672 23.391733 2.648796 -7.094365 2.523022 12.275926 0.000000 -0.000001 0.000000 0.000000 0.000000 0.000000 0.000000 0.000000 0.000000 0.000000 0.000000 -0.000000 0.000000 0.000001 -0.000000 0.000000 0.000001 -0.000000 0.000000 0.000001 -0.000000 0.000000 0.000001 0.000002 -0.000000 -0.000000 -0.000000 -0.000000 -0.000000 -0.000000 -0.000000 -0.000000 -0.000000 -0.000000 -0.000000 -0.000000 -0.000000 -0.000000 -0.000000 -0.000000 -0.000000 -0.000000 -0.000000 -0.000000 -0.000000 -0.000000 -0.000000 -0.000000 -0.000001 -0.000002 -0.000000 
2.048065 93.582291 4.769767 5.121205 17.970274 -3.315255 -0.000000 -0.000000 -0.000000 -17.059272 10.900033 -10.059404 31.231685 10.089877 0.511494 -14.563978 -3.654057 16.379111 0.000000 -0.000001 0.000000 -0.000001 0.000001 0.000000 -10.271538 -7.733931 8.971867 22.076891 -3.135842 -5.472326 -13.415250 0.831027 -3.102093 -0.000000 0.000000 0.000000 -0.000001 0.000000 -0.000000 -9.927100 -10.364210 0.732010 5.009729 -1.598644 0.816571 5.012417 -1.653339 0.675420 1.143228 -0.927451 0.699370 1.143229 -0.927450 0.699370 -0.000001 -0.000000 -0.000000 1.143228 -0.927451 0.699370 1.143369 -0.927456 0.699373 0.000001 0.000000 0.000000 -0.000001 -0.000000 -0.000000 1.122199 -1.375024 2.869630 -28.118617 -47.404013 -60.366981 0.001199 -95.758228 0.001242 37.353369 -33.382792 34.434849 5.178171 -4.980468 -14.534946 -1.306529 10.759513 -4.149398 0.000000 0.000000 0.000001 0.142596 4.075882 1.717760 1.643748 5.045562 -11.157404 0.000001 -0.000000 0.000000 0.037386 0.382466 0.688232 -0.871000 -1.914677 -11.326142 -0.000000 -0.000000 -0.000001 0.970163 -9.290337 10.662057 -6.493294 -2.634541 -21.939884 -0.000001 0.000000 -0.000001 0.251514 -19.599359 2.828722 -5.338001 -7.287821 -8.276364 -0.000003 -0.000001 0.000002 0.000001 0.000003 0.000001 0.000001 0.000003 0.000001 0.000001 0.000003 0.000001 -0.000003 -0.000000 -0.000002 -0.000003 -0.000000 -0.000003 -0.000003 -0.000000 -0.000002 -0.000003 -0.000000 -0.000002 -0.110410 -10.118202 8.367024 -2.366733 -8.666411 41.395994 0.000007 102.437354 0.000001 32.861966 -10.217576 27.904833 5.023065 8.654100 13.868240 -1.539840 -13.750888 4.946630 0.000000 -0.000001 0.000002 0.311831 -4.224220 3.190953 2.243534 -5.029811 16.071374 0.000002 0.000002 -0.000001 -0.109287 -0.553814 4.223116 -1.173030 1.662009 16.201451 0.000001 -0.000001 0.000003 -0.011948 9.163544 -5.701389 -7.616440 1.783527 26.674293 -0.000001 -0.000002 -0.000003 -2.450675 23.391735 2.648794 -7.094369 2.523021 12.275919 -0.000001 0.000001 -0.000001 0.000000 0.000000 0.000000 0.000000 0.000000 0.000000 0.000000 0.000000 0.000000 0.000000 -0.000001 0.000001 0.000000 -0.000001 0.000001 0.000000 -0.000001 0.000001 0.000000 -0.000001 0.000003 0.000000 -0.000000 -0.000000 0.000000 -0.000000 -0.000000 0.000000 -0.000000 -0.000000 0.000000 -0.000000 -0.000000 0.000000 -0.000000 -0.000000 0.000000 -0.000000 -0.000000 0.000000 -0.000000 -0.000000 -0.000001 -0.000000 -0.000000 -0.000000 -0.000000 0.000000 
2.321198 93.530418 4.800286 5.839452 19.280014 -4.456389 -0.000000 0.000000 0.000000 -23.647956 10.044804 -6.849757 37.967389 7.279681 0.993468 -10.143802 -1.794298 10.399386 -0.000001 0.000001 0.000000 0.000002 -0.000002 0.000000 -8.125702 -7.485909 8.918492 18.062140 -3.745248 -3.376650 -12.903385 0.870573 -3.568842 -0.000000 -0.000000 -0.000000 -0.000000 0.000000 -0.000000 -10.646926 -10.605434 0.582879 5.259094 -1.547638 1.776884 5.282379 -1.631458 1.628381 1.013038 -1.001876 0.579488 1.013046 -1.001872 0.579490 0.000000 0.000001 0.000000 1.012969 -1.001866 0.579486 1.013112 -1.001885 0.579492 -0.000001 -0.000000 0.000000 0.000000 0.000001 0.000000 1.186081 -1.425575 3.558484 -26.766419 -50.785561 -58.241481 -0.000178 -95.795828 -0.000170 38.065078 -32.867266 35.344532 5.178182 -4.978171 -14.534760 -1.306526 10.759513 -4.149401 -0.000001 -0.000000 -0.000002 0.144005 4.077127 1.675061 1.649043 5.045544 -11.200887 -0.000000 -0.000000 -0.000000 0.036043 0.383790 0.645657 -0.873788 -1.912654 -11.369436 0.000000 -0.000000 -0.000004 0.961567 -9.289701 10.618882 -6.503575 -2.627519 -21.981874 0.000001 -0.000001 0.000001 0.234731 -19.598193 2.783526 -5.359097 -7.282106 -8.316554 0.000000 -0.000002 -0.000002 -0.000001 -0.000003 -0.000002 -0.000001 -0.000003 -0.000002 -0.000001 -0.000003 -0.000002 0.000000 -0.000002 -0.000001 0.000000 -0.000002 -0.000001 0.000000 -0.000002 -0.000001 0.000000 -0.000002 -0.000001 -0.134169 -11.010197 8.907853 -3.441452 -11.381948 40.007471 0.000010 101.081185 -0.000004 31.875202 -12.213369 24.922761 4.986185 6.736825 13.972691 -2.124324 -15.980532 4.996656 0.000000 0.000002 0.000001 0.311832 -4.224218 3.190953 2.243531 -5.029810 16.071369 -0.000000 0.000002 -0.000003 -0.109288 -0.553817 4.223116 -1.173026 1.662011 16.201448 -0.000001 -0.000000 0.000000 -0.011946 9.163545 -5.701389 -7.616440 1.783528 26.674293 0.000001 -0.000001 0.000002 -2.450674 23.391731 2.648799 -7.094371 2.523020 12.275925 -0.000000 0.000001 0.000002 0.000000 -0.000000 -0.000000 0.000000 -0.000000 -0.000000 0.000000 -0.000000 0.000000 0.000000 -0.000001 -0.000000 0.000000 -0.000001 -0.000000 0.000000 -0.000001 -0.000000 0.000000 -0.000001 0.000001 -0.000000 0.000000 0.000000 0.000000 0.000000 0.000000 -0.000000 0.000000 0.000000 -0.000000 0.000000 0.000000 -0.000000 0.000000 0.000000 -0.000000 0.000000 0.000000 0.000000 0.000000 0.000000 0.000000 -0.000000 -0.000000 -0.000000 0.000000 0.000000 
2.528465 93.298813 4.851674 6.538246 20.131194 -5.695660 -0.000000 0.000001 0.000000 -28.911525 9.455899 -5.334642 42.884651 3.707495 1.260050 -6.469764 -1.151596 10.057588 0.000001 -0.000001 0.000000 0.000000 0.000001 -0.000001 -6.450549 -7.658573 9.312037 15.000702 -4.500736 -1.613007 -12.719404 1.011464 -4.506747 0.000000 0.000000 -0.000000 0.000001 -0.000001 -0.000000 -11.138935 -10.547802 0.953344 5.330514 -1.459978 2.381428 5.365314 -1.564760 2.234580 0.927913 -1.084920 0.505963 0.927949 -1.084916 0.505968 0.000000 0.000000 0.000000 0.928113 -1.084915 0.505974 0.928123 -1.084949 0.505981 -0.000000 -0.000000 -0.000001 0.000000 0.000000 0.000000 1.308542 -1.578319 4.233612 -24.908114 -53.991723 -55.471815 0.000456 -95.908417 0.000422 39.844387 -31.538453 37.007468 5.178242 -4.976558 -14.534164 -1.306528 10.759512 -4.149399 -0.000000 0.000000 0.000001 0.144653 4.077701 1.655465 1.651389 5.045530 -11.220178 0.000000 0.000001 0.000002 0.035430 0.384401 0.626102 -0.875025 -1.911755 -11.388616 -0.000000 -0.000000 0.000000 0.957625 -9.289406 10.599070 -6.508129 -2.624405 -22.000500 -0.000000 0.000000 0.000000 0.227019 -19.597642 2.762759 -5.368450 -7.279568 -8.334377 0.000001 -0.000001 -0.000000 -0.000003 -0.000002 0.000000 -0.000003 -0.000002 0.000000 -0.000003 -0.000002 0.000000 0.000001 -0.000002 0.000003 0.000001 -0.000002 0.000003 0.000001 -0.000002 0.000003 0.000001 -0.000002 0.000003 -0.170225 -11.858349 9.602238 -4.754878 -13.765351 38.754258 0.000089 99.388453 -0.000068 30.918033 -13.627710 22.214309 4.946935 4.448582 14.095257 -2.925690 -19.006309 5.027098 0.000000 0.000002 -0.000003 0.311835 -4.224220 3.190951 2.243533 -5.029809 16.071370 0.000002 -0.000001 0.000001 -0.109287 -0.553817 4.223111 -1.173031 1.662010 16.201446 0.000002 0.000000 0.000001 -0.011943 9.163544 -5.701391 -7.616437 1.783529 26.674298 -0.000001 -0.000001 0.000002 -2.450671 23.391733 2.648796 -7.094364 2.523020 12.275923 -0.000004 -0.000001 0.000001 0.000000 -0.000000 0.000000 0.000000 -0.000000 0.000000 0.000000 -0.000000 0.000000 -0.000001 0.000002 -0.000003 -0.000001 0.000002 -0.000003 -0.000001 0.000002 -0.000003 -0.000001 0.000002 -0.000002 0.000000 0.000000 0.000000 0.000000 0.000000 0.000000 0.000000 0.000000 0.000000 0.000000 0.000000 0.000000 0.000000 0.000000 0.000000 0.000000 0.000000 0.000000 0.000000 0.000000 0.000000 0.000000 0.000000 -0.000000 -0.000000 0.000001 -0.000000 
